<?xml version="1.0" encoding="UTF-8" standalone="no"?><!DOCTYPE svg PUBLIC "-//W3C//DTD SVG 1.1//EN" "http://www.w3.org/Graphics/SVG/1.1/DTD/svg11.dtd"><svg width="100%" height="100%" viewBox="0 0 735 439" version="1.1" xmlns="http://www.w3.org/2000/svg" xmlns:xlink="http://www.w3.org/1999/xlink" xml:space="preserve" xmlns:serif="http://www.serif.com/" style="fill-rule:evenodd;clip-rule:evenodd;stroke-linejoin:round;stroke-miterlimit:2;"><g><path d="M442.758,248.03l-0.343,0.23l-205.189,190.672l248.021,-0c42.376,-0 76.804,-28.356 76.804,-71.976c0,-39.03 -31.204,-71.053 -70.352,-71.975c5.412,-14.698 6.555,-30.079 3.798,-44.885l-73.002,71.288l160.855,-204.108l-140.592,130.754Z" style="fill:#95a3b8;fill-rule:nonzero;"/><path d="M523.36,417.122c16.466,-10.213 27.176,-27.669 27.176,-50.166c0,-28.93 -20.381,-53.149 -47.67,-59.122c29.477,28.361 37.651,72.211 20.494,109.288Z" style="fill:#fff;fill-opacity:0.2;fill-rule:nonzero;"/><path d="M92.019,244.702c-48.127,2.867 -87.971,40.749 -91.764,90.114c-3.92,52.919 37.882,104.116 92.342,104.116c43.525,-0 82.908,-19.744 116.526,-46.147l380.561,-299.267l-270.59,174.947l108.582,-86.325c-14.164,-2.758 -29.016,-1.953 -43.181,2.871c-21.782,-80.195 -83.666,-116.327 -145.139,-116.327c-82.487,-0.005 -164.223,65.053 -147.337,176.018Z" style="fill:#95a3b8;fill-rule:nonzero;"/><path d="M11.765,335.738c-2.305,30.187 12.551,60.61 37.421,77.939c12.899,8.839 27.755,13.776 43.411,13.776c10.25,-0 19.92,-0.918 29.247,-2.754c-34.771,-4.363 -64.71,-26.516 -78.874,-58.43c-14.16,-31.91 -10.48,-68.878 9.557,-97.46c-22.799,14.119 -38.573,38.573 -40.762,66.929Z" style="fill:#fff;fill-opacity:0.2;fill-rule:nonzero;"/><path d="M109.298,214.28c0,70.14 56.419,127.191 126.427,128.574c-60.794,-8.382 -107.777,-60.5 -107.777,-123.524c-0,-68.761 55.961,-124.551 125.052,-124.551c23.252,0 45.134,6.312 63.788,17.451c-21.76,-16.646 -48.936,-26.52 -78.531,-26.52c-71.161,-0 -128.959,57.512 -128.959,128.57Z" style="fill:#fff;fill-opacity:0.2;fill-rule:nonzero;"/><path d="M313.564,244.246c15.892,-26.06 37.191,-45.116 70.931,-59.235c-9.327,-34.442 -26.023,-60.732 -46.978,-79.44c49.167,73.924 -7.026,94.133 -23.953,138.675Z" style="fill-opacity:0.2;fill-rule:nonzero;"/><path d="M48.038,258.134c12.349,-3.229 23.792,3.76 35.736,14.672c19.908,18.186 41.21,47.27 70.427,58.104c-24.757,-12.166 -55.844,-43.737 -62.182,-86.208c-15.887,0.918 -30.852,5.742 -43.981,13.432Z" style="fill-opacity:0.2;fill-rule:nonzero;"/><g><path d="M567.52,54.53c-91.88,72.677 -137.972,108.877 -137.972,108.877c88.757,-61.338 136.919,-94.616 144.472,-99.833c6.347,-4.322 4.1,-10.124 -0.422,-10.904c-1.8,-0.311 -3.956,0.17 -6.078,1.86Z" style="fill:#cbd5e1;fill-rule:nonzero;"/><path d="M621.521,136.892c-6.66,6.334 -48.895,46.779 -126.817,121.437c0,-0 44.663,-37.93 134.328,-113.317c5.432,-4.517 2.991,-10.892 -1.81,-10.876c-1.687,0.006 -3.669,0.804 -5.701,2.756Z" style="fill:#cbd5e1;fill-rule:nonzero;"/></g><path d="M662.89,117.981c-0,0 0.301,1.926 1.869,-16.583c1.569,-18.509 5.258,-21.135 11.123,-29.057c5.866,-7.923 27.462,-29.453 42.585,-43.163c10.551,-9.566 14.665,-19.757 16.188,-25.046c0.569,-1.975 -0.847,-3.964 -2.9,-4.073c-5.496,-0.291 -16.473,0.26 -28.964,7.101c-17.905,9.804 -45.316,23.166 -54.721,26.116c-9.406,2.95 -13.094,5.576 -31.098,1.003c-18.003,-4.575 -16.282,-3.66 -16.282,-3.66c0,-0 -10.865,-3.235 -24.538,6.5l17.953,41l-7.205,5.665l1.159,4.259l-5.504,3.919l16.435,23.083l5.504,-3.919l3.645,2.489l7.711,-4.954l32.868,30.38c13.673,-9.734 14.172,-21.06 14.172,-21.06" style="fill:#95a3b8;fill-rule:nonzero;"/></g></svg>