<?xml version="1.0" encoding="UTF-8" standalone="no"?><!DOCTYPE svg PUBLIC "-//W3C//DTD SVG 1.1//EN" "http://www.w3.org/Graphics/SVG/1.1/DTD/svg11.dtd"><svg width="100%" height="100%" viewBox="0 0 1304 779" version="1.1" xmlns="http://www.w3.org/2000/svg" xmlns:xlink="http://www.w3.org/1999/xlink" xml:space="preserve" xmlns:serif="http://www.serif.com/" style="fill-rule:evenodd;clip-rule:evenodd;stroke-linejoin:round;stroke-miterlimit:2;"><g><g><g><path d="M785.736,440.163l-0.61,0.409l-364.135,338.373l440.147,-0c75.202,-0 136.299,-50.322 136.299,-127.731c0,-69.264 -55.376,-126.093 -124.85,-127.73c9.604,-26.083 11.634,-53.378 6.74,-79.655l-129.551,126.511l285.459,-362.218l-249.499,232.041Z" style="fill:#fff;fill-rule:nonzero;"/><path d="M928.774,740.24c29.221,-18.124 48.228,-49.102 48.228,-89.026c0,-51.34 -36.169,-94.321 -84.597,-104.92c52.311,50.33 66.818,128.148 36.369,193.946Z" style="fill:#fff;fill-opacity:0.5;fill-rule:nonzero;"/></g><g><path d="M163.3,434.258c-85.408,5.086 -156.116,72.313 -162.848,159.919c-6.956,93.912 67.227,184.768 163.875,184.768c77.24,-0 147.13,-35.038 206.791,-81.894l675.357,-531.091l-480.199,310.468l192.694,-153.196c-25.137,-4.894 -51.493,-3.466 -76.63,5.095c-38.656,-142.317 -148.478,-206.438 -257.57,-206.438c-146.385,-0.009 -291.437,115.446 -261.47,312.369Z" style="fill:#fff;fill-rule:nonzero;"/><path d="M20.879,595.814c-4.092,53.571 22.273,107.56 66.409,138.313c22.89,15.685 49.254,24.447 77.039,24.447c18.189,-0 35.35,-1.629 51.902,-4.887c-61.707,-7.742 -114.836,-47.056 -139.973,-103.692c-25.129,-56.628 -18.598,-122.234 16.961,-172.957c-40.461,25.056 -68.455,68.454 -72.338,118.776Z" style="fill:#fff;fill-opacity:0.5;fill-rule:nonzero;"/><path d="M193.965,380.269c-0,124.473 100.122,225.718 224.362,228.174c-107.889,-14.876 -191.266,-107.368 -191.266,-219.212c-0,-122.025 99.312,-221.032 221.923,-221.032c41.263,-0 80.096,11.2 113.2,30.969c-38.616,-29.541 -86.844,-47.064 -139.364,-47.064c-126.286,0 -228.855,102.064 -228.855,228.165Z" style="fill:#fff;fill-opacity:0.5;fill-rule:nonzero;"/><path d="M556.463,433.447c28.202,-46.246 66,-80.064 125.877,-105.12c-16.552,-61.121 -46.182,-107.777 -83.369,-140.977c87.252,131.188 -12.469,167.052 -42.508,246.097Z" style="fill-opacity:0.5;fill-rule:nonzero;"/><path d="M85.25,458.095c58.441,-15.284 105.441,98.389 188.402,129.15c-43.936,-21.59 -99.103,-77.617 -110.352,-152.987c-28.194,1.628 -54.751,10.189 -78.05,23.837Z" style="fill-opacity:0.5;fill-rule:nonzero;"/></g></g><g><g><path d="M1007.14,96.77c-163.053,128.977 -244.85,193.219 -244.85,193.219c157.512,-108.854 242.982,-167.911 256.385,-177.167c11.265,-7.672 7.277,-17.967 -0.748,-19.352c-3.194,-0.551 -7.021,0.302 -10.787,3.3Z" style="fill:#fff;fill-rule:nonzero;"/><path d="M1102.98,242.933c-11.819,11.242 -86.77,83.016 -225.054,215.507c0,-0 79.259,-67.312 238.383,-201.096c9.64,-8.016 5.308,-19.33 -3.213,-19.3c-2.992,0.01 -6.51,1.426 -10.116,4.889Z" style="fill:#fff;fill-rule:nonzero;"/></g><path d="M1176.39,209.374c-0,-0 0.535,3.418 3.318,-29.429c2.784,-32.847 9.33,-37.508 19.739,-51.567c10.41,-14.059 48.734,-52.267 75.573,-76.598c18.725,-16.975 26.025,-35.062 28.727,-44.447c1.01,-3.506 -1.503,-7.035 -5.146,-7.228c-9.753,-0.517 -29.233,0.462 -51.401,12.601c-31.774,17.399 -80.419,41.111 -97.11,46.347c-16.691,5.236 -23.237,9.896 -55.187,1.779c-31.95,-8.119 -28.895,-6.495 -28.895,-6.495c0,0 -19.281,-5.74 -43.546,11.535l31.861,72.761l-12.786,10.054l2.056,7.557l-9.768,6.955l29.166,40.965l9.768,-6.955l6.469,4.417l13.683,-8.793l58.33,53.915c24.264,-17.275 25.149,-37.374 25.149,-37.374" style="fill:#fff;fill-rule:nonzero;"/></g></g></svg>