<svg xmlns="http://www.w3.org/2000/svg" version="1.1" xmlns:xlink="http://www.w3.org/1999/xlink" xmlns:svgjs="http://svgjs.com/svgjs" width="1000" height="1000"><rect width="1000" height="1000" rx="200" ry="200" fill="#ffffff"></rect><g transform="matrix(3.11284046692607,0,0,3.11284046692607,100.64949469065385,101.55642023346303)"><svg xmlns="http://www.w3.org/2000/svg" version="1.1" xmlns:xlink="http://www.w3.org/1999/xlink" xmlns:svgjs="http://svgjs.com/svgjs" width="257" height="256"><svg xmlns="http://www.w3.org/2000/svg" width="257" height="256" viewBox="0 0 257 256"><g fill="none" fill-rule="evenodd"><rect width="256" height="256"></rect><g fill-rule="nonzero" transform="translate(.26 52)"><path fill="#0EA5E9" d="M154.213978,86.5368252 L82.6905636,153 L169.144071,153 C183.915214,153 195.915897,143.115855 195.915897,127.911086 C195.915897,114.306268 185.039015,103.143905 171.393066,102.82252 C173.279545,97.699189 173.677964,92.3377826 172.716947,87.1768058 L147.270397,112.025902 L203.34016,40.8792955 L154.333538,86.4566533 L154.213978,86.5368252 Z"></path><path fill="#FFF" fill-opacity=".4" d="M182.429246,145.397616 C188.168855,141.837636 191.902075,135.75294 191.902075,127.911086 C191.902075,117.826859 184.797802,109.384762 175.285584,107.302733 C185.56048,117.188621 188.409719,132.473562 182.429246,145.397616 Z"></path><path fill="#0EA5E9" d="M32.0752754,85.2966012 C15.2994865,86.295961 1.41093061,99.500616 0.0887919502,116.707939 C-1.27761552,135.154091 13.293447,153 32.2767508,153 C47.4484052,153 61.1762688,146.117768 72.8946072,136.914386 L205.548024,32.5978902 L111.227565,93.5797494 L149.076355,63.4891563 C144.139162,62.527791 138.962151,62.8083926 134.02461,64.4899103 C126.431986,36.5360718 104.860873,23.94142 83.4330248,23.94142 C54.6802562,23.9396772 26.1892661,46.6171612 32.0752754,85.2966012 Z"></path><path fill="#FFF" fill-opacity=".4" d="M4.10087103 117.029323C3.29740949 127.551707 8.47581495 138.156353 17.1448338 144.19678 21.6410812 147.27782 26.8194867 148.998727 32.2767508 148.998727 35.8496275 148.998727 39.2203316 148.678736 42.4714751 148.038756 30.3512317 146.51793 19.9152946 138.795985 14.9781019 127.671616 10.0423035 116.548641 11.3250534 103.662582 18.3094173 93.6996586 10.3622938 98.6211655 4.86389806 107.145178 4.10087103 117.029323L4.10087103 117.029323ZM38.0982741 74.6923032C38.0982741 99.1412369 57.764433 119.027694 82.167355 119.509771 60.9761877 116.588029 44.5991668 98.4210844 44.5991668 76.4525986 44.5991668 52.4843475 64.1056791 33.0374412 88.1889594 33.0374412 96.2939866 33.0374412 103.921468 35.2376361 110.423755 39.1203945 102.838799 33.3180427 93.3659706 29.8762296 83.0499427 29.8762296 58.2451157 29.8762296 38.0982741 49.9233792 38.0982741 74.6923032L38.0982741 74.6923032Z"></path><path fill="#000" fill-opacity=".4" d="M109.299955 85.1376518C114.839482 76.0538307 122.263746 69.4114172 134.02461 64.4899103 130.773467 52.4843475 124.953686 43.3203546 117.649332 36.7992446 134.787637 62.5671798 115.200256 69.6114983 109.299955 85.1376518L109.299955 85.1376518ZM16.7446716 89.9786383C21.7121902 88.6795054 26.2589808 92.1241071 31.139356 96.9396478 37.5367224 103.251614 44.5071434 111.91889 53.7502625 115.346411 45.1206325 111.105668 34.2845332 100.100859 32.0752754 85.2966012 26.5374909 85.6165916 21.3210909 87.2981093 16.7446716 89.9786383Z"></path><path fill="#0EA5E9" fill-opacity=".247" d="M197.822245 19.0077131C165.795327 44.3409773 149.728884 56.959332 149.728884 56.959332 180.667208 35.5785408 197.455197 23.9787174 200.087971 22.1602103 202.300366 20.6536763 201.517122 18.6312539 199.940873 18.3593667 199.313441 18.2509603 198.561917 18.4186241 197.822245 19.0077131ZM216.645553 47.71691C214.324055 49.9247735 199.60206 64.0228221 172.440529 90.0466101 172.440529 90.0466101 188.008859 76.8252235 219.263688 50.5473255 221.157138 48.9728198 220.30627 46.7506648 218.63277 46.7562314 218.044727 46.7583334 217.353854 47.0364949 216.645553 47.71691Z"></path><path fill="#0EA5E9" d="M231.065683,41.1250397 C231.065683,41.1250397 231.170604,41.7963919 231.717167,35.3446481 C232.264079,28.8929043 233.549966,27.9775507 235.594348,25.2161527 C237.639079,22.4544062 245.166869,14.9496223 250.438344,10.1706819 C254.116141,6.83622936 255.550172,3.28391851 256.081049,1.44031414 C256.279387,0.751881808 255.785807,0.0585694451 255.070186,0.0205749517 C253.154427,-0.0808598887 249.328138,0.111204019 244.974108,2.4957942 C238.732903,5.91320717 229.178159,10.5708441 225.899827,11.5991354 C222.621146,12.6274267 221.335607,13.5427803 215.059893,11.9487545 C208.784527,10.3540315 209.384422,10.6729761 209.384422,10.6729761 C209.384422,10.6729761 205.597173,9.54534132 200.83113,12.9387027 L207.089067,27.2302094 L204.577596,29.2048774 L204.981592,30.6894512 L203.063045,32.0555101 L208.791847,40.1016284 L210.710395,38.7355695 L211.980945,39.6031685 L214.668794,37.8763362 L226.125702,48.4659941 C230.891745,45.0729813 231.065683,41.1250397 231.065683,41.1250397"></path></g></g></svg></svg></g></svg>