<?xml version="1.0" standalone="no"?>
<!DOCTYPE svg PUBLIC "-//W3C//DTD SVG 20010904//EN"
 "http://www.w3.org/TR/2001/REC-SVG-20010904/DTD/svg10.dtd">
<svg version="1.0" xmlns="http://www.w3.org/2000/svg"
 width="1334.000000pt" height="1334.000000pt" viewBox="0 0 1334.000000 1334.000000"
 preserveAspectRatio="xMidYMid meet">
<metadata>
Created by potrace 1.14, written by Peter Selinger 2001-2017
</metadata>
<g transform="translate(0.000000,1334.000000) scale(0.100000,-0.100000)"
fill="#000000" stroke="none">
<path d="M13138 10665 c-3 -3 -22 -7 -44 -9 -21 -3 -39 -5 -39 -6 0 -1 -13 -4
-29 -6 -78 -13 -240 -86 -463 -211 -24 -13 -43 -20 -43 -16 0 4 -4 3 -8 -3 -5
-10 -433 -226 -452 -230 -8 -1 -49 -19 -123 -53 -37 -17 -70 -31 -73 -31 -3 0
-20 -6 -37 -14 -41 -19 -178 -64 -208 -70 -13 -3 -24 -5 -24 -6 0 -3 -52 -8
-105 -10 -59 -2 -91 2 -210 26 -41 9 -86 18 -99 20 -14 3 -28 7 -33 10 -4 3
-16 7 -25 9 -10 1 -57 12 -105 24 -48 11 -110 23 -139 26 -67 8 -63 8 -69 6
-3 -1 -24 -4 -47 -6 -54 -4 -165 -41 -223 -73 -81 -45 -80 -44 -68 -66 6 -12
11 -23 11 -26 -1 -7 13 -42 37 -94 11 -25 20 -47 20 -49 0 -2 14 -35 32 -73
17 -38 32 -71 33 -74 3 -10 23 -57 54 -124 17 -38 31 -75 31 -82 0 -8 5 -14
10 -14 6 0 10 -6 10 -14 0 -7 16 -48 35 -90 19 -43 35 -83 35 -90 0 -8 -12
-22 -27 -32 -16 -9 -44 -31 -64 -47 -35 -29 -35 -31 -23 -66 11 -32 10 -37 -9
-53 -11 -10 -23 -18 -26 -18 -3 -1 -17 -9 -29 -20 l-24 -20 21 -34 21 -34 -87
-55 c-49 -31 -93 -60 -99 -64 -18 -14 -49 -33 -64 -40 -8 -4 -20 -12 -27 -17
-34 -29 -43 -36 -51 -36 -4 0 -17 -8 -28 -18 -10 -10 -23 -20 -29 -21 -10 -4
-78 -47 -238 -153 -49 -32 -92 -58 -96 -58 -4 0 -16 -9 -26 -20 -10 -11 -22
-20 -27 -20 -5 0 -14 -5 -21 -10 -7 -6 -57 -40 -112 -75 -55 -35 -105 -69
-112 -75 -7 -5 -14 -10 -17 -10 -2 0 -47 -28 -98 -61 -51 -34 -127 -83 -168
-110 -41 -27 -80 -53 -87 -59 -7 -5 -17 -10 -23 -10 -5 0 -10 -5 -10 -11 0 -5
-4 -8 -9 -5 -5 4 -11 2 -13 -2 -1 -4 -41 -33 -88 -63 -47 -31 -127 -84 -179
-117 -52 -34 -95 -62 -96 -62 -4 0 -260 -168 -272 -179 -7 -6 -14 -11 -17 -11
-5 0 -364 -233 -433 -281 -23 -16 -46 -29 -52 -29 -6 0 -11 -4 -11 -9 0 -5
-12 -15 -27 -22 -16 -8 -73 -44 -128 -80 -55 -36 -115 -74 -132 -84 -18 -11
-33 -23 -33 -27 0 -4 -7 -8 -15 -8 -8 0 -15 -4 -15 -10 0 -5 -4 -10 -10 -10
-5 0 -76 -43 -157 -97 -81 -53 -193 -125 -248 -161 -55 -36 -140 -91 -189
-123 -48 -33 -92 -59 -97 -59 -5 0 -9 -3 -9 -8 0 -4 -20 -18 -45 -32 -25 -14
-45 -28 -45 -32 0 -5 -5 -8 -10 -8 -6 0 -29 -13 -52 -30 -22 -16 -47 -30 -54
-30 -7 0 -14 -3 -16 -7 -3 -9 -125 -93 -134 -93 -3 0 -10 -5 -17 -10 -23 -19
-146 -100 -152 -100 -4 0 -13 -6 -20 -12 -33 -30 -45 -38 -45 -33 0 4 -18 -8
-40 -25 -22 -17 -40 -28 -40 -23 0 4 -4 4 -8 -2 -4 -5 -32 -26 -62 -46 -30
-20 -91 -60 -135 -89 -44 -29 -109 -71 -145 -93 -36 -22 -67 -42 -70 -46 -7
-9 -50 -32 -50 -27 0 2 35 30 78 62 42 33 79 62 82 65 3 3 28 23 55 45 28 21
57 45 65 52 12 10 213 171 345 276 17 14 62 50 100 81 91 73 85 68 195 155 52
41 97 77 100 80 3 3 48 39 100 79 52 41 100 79 105 85 6 6 39 33 75 60 36 27
72 57 82 65 9 9 31 27 49 41 18 14 69 54 114 90 45 36 99 79 120 95 21 17 43
35 49 40 6 6 31 26 56 45 25 19 54 43 64 52 11 10 35 28 53 41 36 24 41 36 18
38 -17 2 -34 5 -37 9 -7 5 -82 10 -198 13 -146 5 -261 -7 -385 -37 -5 -2 -23
-6 -40 -10 -16 -4 -43 -12 -58 -18 -32 -12 -44 -5 -50 32 -3 14 -10 36 -15 50
-5 14 -10 27 -10 30 -1 7 -5 19 -44 135 -18 55 -36 102 -40 103 -5 2 -8 9 -8
17 0 7 -7 29 -15 49 -8 20 -15 37 -14 38 2 5 -164 333 -172 338 -3 3 -15 21
-25 40 -25 45 -87 140 -139 210 -57 77 -67 91 -92 117 -13 13 -23 26 -23 29 0
6 -85 97 -166 178 -51 51 -142 131 -192 170 -15 11 -33 26 -39 32 -7 7 -28 22
-48 34 -19 12 -35 26 -35 31 0 6 -4 8 -9 5 -5 -4 -11 -3 -13 1 -3 8 -118 87
-128 88 -3 1 -21 11 -40 23 -42 28 -278 146 -311 157 -13 4 -26 8 -29 10 -32
14 -150 58 -165 61 -5 2 -48 14 -95 28 -47 14 -96 27 -110 30 -55 12 -126 27
-152 31 -16 3 -43 8 -60 11 -120 21 -236 29 -453 28 -115 0 -232 -4 -260 -8
-27 -4 -66 -9 -85 -11 -54 -6 -106 -13 -147 -21 -21 -4 -45 -8 -53 -9 -8 -1
-33 -7 -55 -13 -22 -6 -53 -13 -68 -16 -15 -3 -54 -13 -85 -22 -31 -10 -61
-18 -67 -20 -70 -17 -246 -86 -361 -140 -43 -20 -82 -37 -86 -36 -3 1 -12 -5
-18 -13 -7 -8 -17 -15 -22 -15 -23 0 -329 -192 -336 -212 -2 -4 -10 -8 -17 -8
-7 0 -15 -3 -17 -7 -1 -5 -32 -30 -67 -58 -138 -108 -401 -388 -464 -492 -10
-18 -23 -33 -28 -33 -5 0 -9 -5 -9 -11 0 -6 -11 -25 -25 -43 -14 -18 -25 -36
-25 -39 0 -4 -15 -30 -34 -59 -28 -45 -118 -213 -121 -228 -1 -3 -8 -21 -17
-40 -28 -63 -66 -158 -74 -185 -24 -78 -77 -255 -80 -270 -2 -11 -7 -33 -11
-50 -3 -16 -7 -37 -9 -45 -3 -22 -15 -89 -20 -114 -3 -11 -7 -52 -10 -91 -4
-38 -10 -79 -14 -90 -8 -21 -5 -545 3 -605 5 -34 15 -115 21 -172 2 -16 -2
-29 -10 -32 -8 -3 -14 0 -14 7 0 7 -3 8 -8 2 -11 -16 -44 -18 -53 -3 -7 10 -9
8 -9 -6 0 -15 -3 -16 -15 -6 -8 7 -15 9 -15 4 0 -8 -33 -14 -92 -17 -10 -1
-18 -5 -18 -9 0 -4 -9 -5 -20 -3 -11 2 -22 1 -24 -3 -2 -4 -19 -9 -37 -10 -18
-2 -36 -6 -39 -10 -3 -4 -11 -8 -18 -10 -7 -1 -20 -4 -30 -6 -18 -3 -27 -6
-109 -38 -29 -11 -56 -20 -60 -21 -4 0 -50 -22 -101 -48 -348 -182 -615 -446
-792 -782 -46 -89 -118 -267 -127 -316 -2 -13 -8 -32 -14 -43 -5 -10 -7 -18
-5 -18 3 0 2 -10 -3 -23 -5 -13 -12 -39 -15 -58 -3 -19 -8 -45 -11 -59 -25
-112 -25 -550 0 -591 3 -3 6 -21 9 -40 5 -40 31 -146 52 -207 73 -221 176
-412 313 -587 54 -68 220 -238 277 -283 69 -54 205 -142 279 -181 87 -46 264
-116 320 -127 6 -1 30 -7 55 -14 25 -7 59 -14 75 -16 17 -2 59 -8 95 -13 62
-10 387 -7 460 4 19 3 53 7 75 9 22 3 51 7 65 10 14 3 43 8 65 11 46 8 70 13
70 15 0 1 12 3 26 4 14 2 35 6 45 11 10 4 26 9 34 10 27 4 144 35 165 44 11 5
73 27 137 50 276 97 561 246 843 439 61 41 130 89 155 106 25 16 51 36 59 44
12 11 76 62 247 194 59 45 106 83 118 93 6 6 27 22 48 37 20 15 42 33 50 40 7
7 29 25 48 39 19 15 46 36 60 48 32 26 29 24 135 106 97 76 121 95 139 110 6
6 31 26 56 45 25 19 47 37 50 40 3 3 66 53 140 110 74 57 137 107 140 110 3 3
25 21 50 40 25 19 54 42 65 52 29 24 137 109 175 138 18 14 41 32 51 40 9 8
30 25 46 37 15 13 89 71 163 129 74 59 160 127 190 150 30 24 60 47 65 52 6 4
53 41 105 83 52 41 129 102 170 134 41 33 82 65 90 72 13 10 139 110 190 150
8 6 42 33 75 60 33 26 65 51 70 55 6 4 26 20 45 36 19 16 66 53 104 82 38 29
76 59 85 66 77 62 123 99 181 144 25 19 47 37 50 40 3 3 23 19 45 36 22 16 45
34 51 39 6 6 69 55 139 110 70 55 144 115 164 132 20 18 42 33 49 33 6 0 12 4
12 8 0 4 24 26 53 47 28 22 58 45 65 52 7 7 41 34 75 60 34 26 69 53 77 60 8
7 56 44 105 83 50 39 99 79 110 88 11 10 36 28 55 42 19 13 40 30 45 36 6 6
30 27 55 46 25 18 54 41 65 50 11 9 76 61 145 115 69 53 130 102 137 108 7 5
25 20 40 32 15 12 55 44 89 70 63 50 86 68 213 168 42 33 78 62 81 65 3 3 23
19 45 36 43 31 70 53 89 69 6 6 35 28 64 50 28 21 52 43 52 47 0 4 5 8 11 8 6
0 21 9 33 20 11 11 71 59 132 107 129 102 459 363 790 625 128 101 309 244
404 318 94 74 183 145 198 157 32 28 50 29 59 6 4 -10 12 -24 19 -30 7 -7 22
-29 35 -50 13 -21 26 -40 29 -43 4 -3 37 -49 75 -103 66 -93 69 -97 89 -82 12
8 28 18 36 22 8 4 21 13 28 20 12 11 20 10 48 -8 36 -22 40 -21 89 11 17 11
43 27 58 35 34 20 4 43 248 -185 27 -25 90 -83 140 -130 51 -47 124 -115 163
-152 l70 -66 31 21 c65 46 167 167 190 225 10 25 18 47 20 55 2 4 4 9 5 12 3
7 5 13 15 70 4 28 10 57 11 65 2 8 6 49 9 90 3 41 8 93 10 115 3 22 7 65 10
95 5 60 6 62 29 162 14 61 51 155 66 168 3 3 14 18 24 35 11 16 23 34 28 40 4
5 22 28 39 50 111 147 544 589 814 832 35 31 125 140 125 151 0 6 4 12 9 14
28 10 131 238 131 289 0 33 -39 49 -121 49 -41 0 -78 -2 -81 -5z"/>
<path d="M10380 9686 c0 -2 8 -10 18 -17 15 -13 16 -12 3 4 -13 16 -21 21 -21
13z"/>
<path d="M10309 9643 c-13 -16 -12 -17 4 -4 9 7 17 15 17 17 0 8 -8 3 -21 -13z"/>
<path d="M10390 9636 c7 -7 13 -7 20 0 6 6 3 10 -10 10 -13 0 -16 -4 -10 -10z"/>
<path d="M10435 9642 c3 -3 -1 -12 -7 -21 -8 -10 -4 -9 10 3 26 23 26 23 7 23
-8 0 -13 -3 -10 -5z"/>
<path d="M10329 9623 c-13 -16 -12 -17 4 -4 9 7 17 15 17 17 0 8 -8 3 -21 -13z"/>
<path d="M10351 9607 c-13 -21 -12 -21 5 -5 10 10 16 20 13 22 -3 3 -11 -5
-18 -17z"/>
<path d="M10297 9593 c-10 -9 -9 -23 1 -23 5 0 9 7 9 15 0 17 -1 18 -10 8z"/>
<path d="M10414 9589 c-3 -6 -2 -15 3 -20 5 -5 9 -1 9 11 0 23 -2 24 -12 9z"/>
<path d="M10185 9559 c-3 -4 2 -6 10 -5 21 3 28 13 10 13 -9 0 -18 -4 -20 -8z"/>
<path d="M10275 9550 c10 -11 20 -20 23 -20 3 0 -3 9 -13 20 -10 11 -20 20
-23 20 -3 0 3 -9 13 -20z"/>
<path d="M10322 9558 c-15 -15 -15 -28 0 -28 6 0 8 3 5 7 -4 3 -2 12 4 20 14
16 7 17 -9 1z"/>
<path d="M10355 9562 c3 -3 -1 -12 -7 -21 -8 -10 -4 -9 10 3 26 23 26 23 7 23
-8 0 -13 -3 -10 -5z"/>
<path d="M10379 9533 c-13 -17 -13 -17 6 -3 11 8 22 16 24 17 2 2 0 3 -6 3 -6
0 -17 -8 -24 -17z"/>
<path d="M10428 9523 c7 -3 16 -2 19 1 4 3 -2 6 -13 5 -11 0 -14 -3 -6 -6z"/>
<path d="M10134 9500 c0 -13 4 -16 10 -10 7 7 7 13 0 20 -6 6 -10 3 -10 -10z"/>
<path d="M10290 9516 c0 -2 8 -10 18 -17 15 -13 16 -12 3 4 -13 16 -21 21 -21
13z"/>
<path d="M10395 9510 c-4 -6 -10 -8 -15 -5 -10 6 -7 -21 4 -32 4 -4 6 -1 4 7
-1 8 2 14 8 13 6 -1 11 5 11 13 0 17 -4 18 -12 4z"/>
<path d="M10226 9502 c-2 -4 4 -8 14 -8 10 0 16 4 14 8 -3 4 -9 8 -14 8 -5 0
-11 -4 -14 -8z"/>
<path d="M10189 9483 c-13 -16 -12 -17 4 -4 9 7 17 15 17 17 0 8 -8 3 -21 -13z"/>
<path d="M10270 9496 c0 -2 8 -10 18 -17 15 -13 16 -12 3 4 -13 16 -21 21 -21
13z"/>
<path d="M10206 9465 c-18 -14 -18 -14 1 -12 11 0 20 7 20 14 0 7 -1 13 -1 13
-1 0 -9 -7 -20 -15z"/>
<path d="M10253 9467 c0 -7 9 -14 20 -14 11 -1 18 -1 16 0 -2 2 -11 8 -20 15
-12 9 -16 9 -16 -1z"/>
<path d="M10109 9457 c6 -8 9 -16 6 -19 -3 -2 2 -5 10 -5 13 0 13 3 -2 19 -19
21 -31 25 -14 5z"/>
<path d="M10039 9433 c-13 -16 -12 -17 4 -4 9 7 17 15 17 17 0 8 -8 3 -21 -13z"/>
<path d="M10070 9446 c0 -2 7 -7 16 -10 8 -3 12 -2 9 4 -6 10 -25 14 -25 6z"/>
<path d="M10174 9426 c1 -8 5 -18 8 -22 4 -3 5 1 4 10 -1 8 -5 18 -8 22 -4 3
-5 -1 -4 -10z"/>
<path d="M10295 9429 c-4 -6 -5 -12 -2 -15 2 -3 7 2 10 11 7 17 1 20 -8 4z"/>
<path d="M10059 9413 c-12 -16 -12 -17 2 -6 9 7 20 9 24 5 5 -4 5 -1 1 6 -9
16 -11 15 -27 -5z"/>
<path d="M10234 9406 c1 -8 5 -18 8 -22 4 -3 5 1 4 10 -1 8 -5 18 -8 22 -4 3
-5 -1 -4 -10z"/>
<path d="M9990 9401 c0 -6 4 -13 10 -16 6 -3 7 1 4 9 -7 18 -14 21 -14 7z"/>
<path d="M9960 9386 c0 -2 8 -10 18 -17 15 -13 16 -12 3 4 -13 16 -21 21 -21
13z"/>
<path d="M10029 9377 c6 -8 9 -16 6 -19 -3 -2 2 -5 10 -5 13 0 13 3 -2 19 -19
21 -31 25 -14 5z"/>
<path d="M10166 9378 c3 -5 9 -7 12 -4 3 3 12 0 21 -6 13 -10 14 -10 4 2 -15
16 -46 23 -37 8z"/>
<path d="M10080 9360 c-9 -6 -10 -10 -3 -10 6 0 15 5 18 10 8 12 4 12 -15 0z"/>
<path d="M10173 9345 c0 -8 4 -12 9 -9 5 3 6 10 3 15 -9 13 -12 11 -12 -6z"/>
<path d="M9966 9301 c-14 -15 -15 -21 -4 -27 7 -4 10 -3 5 1 -4 5 0 17 10 27
9 10 14 18 11 18 -3 0 -13 -9 -22 -19z"/>
<path d="M10023 9304 c9 -11 14 -23 11 -26 -3 -3 -1 -8 4 -12 18 -11 8 25 -12
41 -21 18 -21 18 -3 -3z"/>
<path d="M9865 9300 c-3 -6 1 -7 9 -4 18 7 21 14 7 14 -6 0 -13 -4 -16 -10z"/>
<path d="M9907 9279 c7 -9 11 -18 8 -21 -3 -3 3 -11 12 -19 16 -12 17 -12 6 2
-7 9 -11 18 -8 21 3 3 -3 11 -12 19 -16 12 -17 12 -6 -2z"/>
<path d="M9986 9282 c-3 -5 1 -9 9 -9 8 0 15 4 15 9 0 4 -4 8 -9 8 -6 0 -12
-4 -15 -8z"/>
<path d="M9825 9239 c-3 -4 2 -6 10 -5 21 3 28 13 10 13 -9 0 -18 -4 -20 -8z"/>
<path d="M10025 9240 c-3 -6 1 -7 9 -4 18 7 21 14 7 14 -6 0 -13 -4 -16 -10z"/>
<path d="M9774 9229 c-3 -6 -2 -15 3 -20 5 -5 9 -1 9 11 0 23 -2 24 -12 9z"/>
<path d="M9890 9236 c0 -2 8 -10 18 -17 15 -13 16 -12 3 4 -13 16 -21 21 -21
13z"/>
<path d="M9964 9222 c23 -26 23 -26 23 -7 0 8 -3 13 -5 10 -3 -3 -12 1 -21 7
-10 8 -9 4 3 -10z"/>
<path d="M9859 9213 c-13 -16 -12 -17 4 -4 16 13 21 21 13 21 -2 0 -10 -8 -17
-17z"/>
<path d="M9920 9200 c-9 -6 -10 -10 -3 -10 6 0 15 5 18 10 8 12 4 12 -15 0z"/>
<path d="M9753 9185 c0 -8 4 -12 9 -9 5 3 6 10 3 15 -9 13 -12 11 -12 -6z"/>
<path d="M9919 9178 c-5 -18 -6 -38 -1 -34 7 8 12 36 6 36 -2 0 -4 -1 -5 -2z"/>
<path d="M9793 9147 c-1 -11 -1 -18 0 -16 2 2 8 11 15 20 9 12 9 16 -1 16 -7
0 -14 -9 -14 -20z"/>
<path d="M9873 9147 c-1 -11 -1 -18 0 -16 2 2 8 11 15 20 9 12 9 16 -1 16 -7
0 -14 -9 -14 -20z"/>
<path d="M9739 9133 c-13 -16 -12 -17 4 -4 9 7 17 15 17 17 0 8 -8 3 -21 -13z"/>
<path d="M9819 9133 c-13 -16 -12 -17 4 -4 16 13 21 21 13 21 -2 0 -10 -8 -17
-17z"/>
<path d="M9596 9101 c-3 -5 2 -15 12 -22 15 -12 16 -12 5 2 -7 9 -10 19 -6 22
3 4 4 7 0 7 -3 0 -8 -4 -11 -9z"/>
<path d="M9697 9091 c-10 -14 -10 -14 4 -4 9 7 18 10 21 7 3 -3 8 -1 12 4 9
16 -24 9 -37 -7z"/>
<path d="M9715 9070 c-4 -6 -10 -8 -14 -6 -4 3 -8 -1 -8 -9 0 -13 4 -12 19 2
18 16 22 23 14 23 -3 0 -8 -5 -11 -10z"/>
<path d="M9573 9055 c0 -8 4 -12 9 -9 4 3 8 9 8 15 0 5 -4 9 -8 9 -5 0 -9 -7
-9 -15z"/>
<path d="M9639 9053 c-12 -16 -12 -17 2 -6 9 7 20 9 24 5 5 -4 5 -1 1 6 -9 16
-11 15 -27 -5z"/>
<path d="M9766 9058 c3 -5 10 -6 15 -3 13 9 11 12 -6 12 -8 0 -12 -4 -9 -9z"/>
<path d="M9600 9035 c-7 -8 -9 -15 -5 -15 4 0 1 -8 -6 -17 -13 -16 -12 -17 4
-4 9 8 15 16 12 19 -3 3 0 11 6 19 6 7 9 13 6 13 -2 0 -10 -7 -17 -15z"/>
<path d="M9539 9038 c-5 -18 -6 -38 -1 -34 7 8 12 36 6 36 -2 0 -4 -1 -5 -2z"/>
<path d="M9555 8990 c-4 -6 -10 -8 -14 -6 -4 3 -8 -1 -8 -9 0 -13 4 -12 19 2
18 16 22 23 14 23 -3 0 -8 -5 -11 -10z"/>
<path d="M9611 8987 c-8 -10 -7 -14 2 -14 8 0 14 6 14 14 0 7 -1 13 -2 13 -2
0 -8 -6 -14 -13z"/>
<path d="M9470 8956 c7 -7 13 -7 20 0 6 6 3 10 -10 10 -13 0 -16 -4 -10 -10z"/>
<path d="M9587 8959 c7 -7 15 -10 18 -7 3 3 -2 9 -12 12 -14 6 -15 5 -6 -5z"/>
<path d="M9414 8940 c0 -13 4 -16 10 -10 7 7 7 13 0 20 -6 6 -10 3 -10 -10z"/>
<path d="M9440 8946 c0 -2 8 -10 18 -17 15 -13 16 -12 3 4 -13 16 -21 21 -21
13z"/>
<path d="M9556 8942 c-3 -5 1 -9 9 -9 8 0 12 4 9 9 -3 4 -7 8 -9 8 -2 0 -6 -4
-9 -8z"/>
<path d="M9504 8922 c4 -3 14 -7 22 -8 9 -1 13 0 10 4 -4 3 -14 7 -22 8 -9 1
-13 0 -10 -4z"/>
<path d="M9397 8892 c-15 -16 -15 -19 -2 -19 8 0 13 3 10 5 -3 3 0 11 6 19 17
20 5 16 -14 -5z"/>
<path d="M9466 8898 c3 -5 10 -6 15 -3 13 9 11 12 -6 12 -8 0 -12 -4 -9 -9z"/>
<path d="M9426 8882 c-2 -4 4 -8 14 -8 10 0 16 4 14 8 -3 4 -9 8 -14 8 -5 0
-11 -4 -14 -8z"/>
<path d="M9329 8823 c-13 -16 -12 -17 4 -4 9 7 17 15 17 17 0 8 -8 3 -21 -13z"/>
<path d="M9370 8836 c0 -2 8 -10 18 -17 15 -13 16 -12 3 4 -13 16 -21 21 -21
13z"/>
<path d="M9413 8819 c-2 -23 3 -25 10 -4 4 8 3 16 -1 19 -4 3 -9 -4 -9 -15z"/>
<path d="M9346 8802 c-3 -5 1 -9 9 -9 8 0 15 4 15 9 0 4 -4 8 -9 8 -6 0 -12
-4 -15 -8z"/>
<path d="M9263 8785 c17 -19 17 -19 35 0 16 18 16 18 0 6 -15 -11 -21 -11 -35
0 -17 12 -17 12 0 -6z"/>
<path d="M9199 8783 c0 -5 -2 -16 -4 -25 -2 -10 0 -20 4 -22 3 -2 7 9 7 25 1
16 0 29 -2 29 -2 0 -4 -3 -5 -7z"/>
<path d="M9230 8776 c0 -2 8 -10 18 -17 15 -13 16 -12 3 4 -13 16 -21 21 -21
13z"/>
<path d="M9309 8763 c-13 -16 -12 -17 4 -4 9 7 17 15 17 17 0 8 -8 3 -21 -13z"/>
<path d="M9160 8746 c0 -2 8 -10 18 -17 15 -13 16 -12 3 4 -13 16 -21 21 -21
13z"/>
<path d="M9229 8723 c-13 -16 -12 -17 4 -4 9 7 17 15 17 17 0 8 -8 3 -21 -13z"/>
<path d="M9140 8726 c0 -2 8 -10 18 -17 15 -13 16 -12 3 4 -13 16 -21 21 -21
13z"/>
<path d="M9255 8709 c-4 -6 -5 -12 -2 -15 2 -3 7 2 10 11 7 17 1 20 -8 4z"/>
<path d="M9123 8698 c-9 -16 -12 -78 -3 -83 3 -2 6 13 5 33 -1 20 3 43 8 50 5
6 7 12 4 12 -3 0 -9 -6 -14 -12z"/>
<path d="M9176 8693 c-6 -14 -5 -15 5 -6 7 7 10 15 7 18 -3 3 -9 -2 -12 -12z"/>
<path d="M9190 8658 c0 -4 4 -8 9 -8 6 0 12 4 15 8 3 5 -1 9 -9 9 -8 0 -15 -4
-15 -9z"/>
<path d="M9032 8641 c-11 -7 -11 -9 0 -14 9 -3 15 1 15 9 0 8 -1 14 -1 14 -1
0 -7 -4 -14 -9z"/>
<path d="M9070 8636 c7 -7 13 -7 20 0 6 6 3 10 -10 10 -13 0 -16 -4 -10 -10z"/>
<path d="M9145 8639 c-3 -4 2 -6 10 -5 21 3 28 13 10 13 -9 0 -18 -4 -20 -8z"/>
<path d="M9009 8583 c-13 -16 -12 -17 4 -4 9 7 17 15 17 17 0 8 -8 3 -21 -13z"/>
<path d="M9080 8580 c-9 -6 -10 -10 -3 -10 6 0 15 5 18 10 8 12 4 12 -15 0z"/>
<path d="M8975 8550 c-4 -6 -11 -7 -17 -4 -7 4 -8 2 -4 -5 6 -9 11 -9 22 0 14
11 18 19 10 19 -3 0 -8 -5 -11 -10z"/>
<path d="M8989 8523 c-13 -16 -12 -17 4 -4 9 7 17 15 17 17 0 8 -8 3 -21 -13z"/>
<path d="M8913 8509 c-2 -23 3 -25 10 -4 4 8 3 16 -1 19 -4 3 -9 -4 -9 -15z"/>
<path d="M8947 8519 c7 -7 15 -10 18 -7 3 3 -2 9 -12 12 -14 6 -15 5 -6 -5z"/>
<path d="M10444 8422 c-45 -42 -135 -126 -199 -187 -65 -60 -144 -135 -176
-165 -60 -57 -233 -219 -298 -279 -53 -49 -275 -258 -337 -316 -29 -27 -101
-95 -160 -150 -59 -55 -131 -124 -162 -152 -30 -29 -56 -53 -57 -53 -2 0 -32
-28 -68 -63 -36 -34 -118 -112 -183 -172 -65 -61 -140 -131 -167 -157 -27 -27
-50 -48 -52 -48 -2 0 -25 -21 -52 -47 -27 -27 -109 -104 -183 -173 -73 -69
-160 -150 -191 -180 -32 -30 -98 -91 -145 -135 -48 -44 -104 -96 -124 -115
-177 -166 -290 -271 -315 -294 -16 -15 -59 -55 -95 -89 -36 -34 -126 -118
-199 -187 -74 -69 -153 -143 -177 -165 -23 -22 -90 -85 -149 -140 -59 -55
-131 -122 -160 -150 -29 -27 -94 -88 -144 -135 -51 -47 -118 -110 -150 -140
-32 -30 -109 -102 -171 -160 -62 -58 -135 -126 -162 -152 -27 -26 -91 -85
-141 -132 -51 -46 -117 -109 -148 -138 -31 -29 -105 -99 -166 -155 -126 -118
-160 -149 -264 -247 -86 -80 -339 -318 -379 -356 -15 -14 -82 -77 -150 -140
-68 -63 -145 -135 -171 -160 -26 -25 -93 -88 -149 -140 -150 -139 -179 -166
-242 -226 l-57 -54 2337 3 c1285 2 2355 6 2377 10 22 4 58 12 80 17 22 5 65
14 95 21 30 6 60 14 65 18 6 3 15 6 20 7 6 1 40 13 76 28 36 14 70 26 76 26 6
0 13 3 15 8 2 4 37 24 78 46 71 37 148 89 215 146 52 44 166 164 183 193 9 15
20 27 24 27 4 0 8 5 8 11 0 6 11 25 25 43 14 18 25 38 25 43 0 6 7 16 15 23 8
7 12 16 9 21 -3 5 -1 9 4 9 6 0 13 12 17 28 3 15 12 34 19 42 11 13 25 52 27
77 0 5 4 13 8 18 5 6 12 24 16 40 5 17 9 35 11 40 32 103 46 218 46 370 0 112
-2 143 -18 220 -3 17 -7 37 -8 45 -6 46 -20 98 -33 123 -7 15 -11 27 -9 27 10
0 -65 167 -109 243 -101 173 -229 311 -404 432 -53 36 -218 123 -250 131 -9 2
-43 13 -76 24 -33 12 -69 23 -80 25 -11 2 -32 6 -47 9 -68 14 -87 17 -153 23
-38 3 -72 7 -74 9 -2 2 8 45 23 96 28 100 28 97 46 208 20 117 17 396 -5 481
-6 26 -16 17 -212 -175 -322 -317 -620 -610 -855 -843 -120 -118 -218 -212
-218 -209 0 9 96 133 151 197 10 12 19 25 19 28 0 4 12 20 28 37 15 17 74 93
132 168 58 75 108 136 112 136 5 0 8 6 8 14 0 8 3 16 8 18 4 2 29 32 56 68 27
36 54 70 60 75 6 6 31 37 56 69 25 33 63 83 85 111 22 29 73 94 113 146 40 52
81 103 90 114 10 11 31 38 48 60 16 22 34 45 39 51 6 6 21 26 35 44 51 66 214
275 224 286 6 7 20 24 31 40 11 15 42 55 68 88 26 34 58 74 70 89 12 16 29 37
37 47 8 10 24 31 35 46 11 15 25 32 30 38 6 6 33 40 60 76 27 36 54 70 60 77
13 15 54 66 85 108 84 113 135 175 142 175 4 0 8 5 8 11 0 5 26 42 58 82 31
40 62 78 67 85 6 7 15 18 20 25 6 7 114 145 240 307 126 162 232 297 235 300
3 3 17 21 32 42 15 20 33 42 40 50 7 7 42 52 77 98 36 47 71 92 78 100 20 22
103 132 103 136 0 8 -6 3 -86 -74z"/>
<path d="M8864 8482 c4 -3 14 -7 22 -8 9 -1 13 0 10 4 -4 3 -14 7 -22 8 -9 1
-13 0 -10 -4z"/>
<path d="M8831 8447 c-13 -21 -12 -21 5 -5 10 10 16 20 13 22 -3 3 -11 -5 -18
-17z"/>
<path d="M8791 8447 c-8 -10 -7 -14 2 -14 8 0 14 6 14 14 0 7 -1 13 -2 13 -2
0 -8 -6 -14 -13z"/>
<path d="M8739 8408 c-6 -20 -6 -39 0 -42 4 -3 7 6 7 20 0 20 -4 32 -7 22z"/>
<path d="M8656 8333 c-6 -14 -5 -15 5 -6 7 7 10 15 7 18 -3 3 -9 -2 -12 -12z"/>
<path d="M8714 8338 c-4 -5 -3 -12 0 -15 3 -4 6 -1 6 6 0 7 4 10 9 6 5 -3 12
-2 15 3 3 5 -2 9 -10 9 -8 0 -17 -4 -20 -9z"/>
<path d="M8546 8218 c3 -4 9 -8 15 -8 5 0 9 4 9 8 0 5 -7 9 -15 9 -8 0 -12 -4
-9 -9z"/>
<path d="M11389 8203 c-13 -16 -12 -17 4 -4 9 7 17 15 17 17 0 8 -8 3 -21 -13z"/>
<path d="M11330 8196 c0 -2 8 -10 18 -17 15 -13 16 -12 3 4 -13 16 -21 21 -21
13z"/>
<path d="M8456 8173 c-6 -14 -5 -15 5 -6 7 7 10 15 7 18 -3 3 -9 -2 -12 -12z"/>
<path d="M8484 8182 c4 -3 14 -7 22 -8 9 -1 13 0 10 4 -4 3 -14 7 -22 8 -9 1
-13 0 -10 -4z"/>
<path d="M11313 8173 c0 -11 7 -20 14 -20 10 0 10 4 1 16 -7 9 -13 18 -15 20
-1 2 -1 -5 0 -16z"/>
<path d="M11400 8185 c0 -2 6 -8 13 -14 10 -8 14 -7 14 2 0 8 -6 14 -14 14 -7
0 -13 -1 -13 -2z"/>
<path d="M11259 8163 c0 -5 -2 -16 -4 -26 -2 -11 -1 -16 3 -13 8 8 14 46 7 46
-3 0 -5 -3 -6 -7z"/>
<path d="M11380 8166 c0 -2 8 -10 18 -17 15 -13 16 -12 3 4 -13 16 -21 21 -21
13z"/>
<path d="M8439 8133 c-13 -16 -12 -17 4 -4 9 7 17 15 17 17 0 8 -8 3 -21 -13z"/>
<path d="M8399 8113 c-13 -16 -12 -17 4 -4 9 7 17 15 17 17 0 8 -8 3 -21 -13z"/>
<path d="M11220 8120 c-9 -6 -10 -10 -3 -10 6 0 15 5 18 10 8 12 4 12 -15 0z"/>
<path d="M11426 8118 c3 -4 9 -8 15 -8 5 0 9 4 9 8 0 5 -7 9 -15 9 -8 0 -12
-4 -9 -9z"/>
<path d="M11303 8104 c9 -11 14 -23 11 -26 -3 -3 -1 -8 4 -12 18 -11 8 25 -12
41 -21 18 -21 18 -3 -3z"/>
<path d="M11369 8103 c-13 -16 -12 -17 4 -4 9 7 17 15 17 17 0 8 -8 3 -21 -13z"/>
<path d="M11233 8086 l-18 -21 24 20 c13 11 25 19 28 17 3 -2 7 -2 9 1 2 2 -3
4 -11 4 -8 0 -23 -10 -32 -21z"/>
<path d="M11393 8092 c-8 -14 -8 -19 1 -19 7 0 13 9 13 19 1 10 1 18 0 18 -1
0 -7 -8 -14 -18z"/>
<path d="M8360 8080 c-9 -6 -10 -10 -3 -10 6 0 15 5 18 10 8 12 4 12 -15 0z"/>
<path d="M11347 8079 c7 -7 15 -10 18 -7 3 3 -2 9 -12 12 -14 6 -15 5 -6 -5z"/>
<path d="M11174 8069 c-3 -6 -2 -15 3 -20 5 -5 9 -1 9 11 0 23 -2 24 -12 9z"/>
<path d="M11259 8078 c-5 -18 -6 -38 -1 -34 7 8 12 36 6 36 -2 0 -4 -1 -5 -2z"/>
<path d="M8315 8060 c-3 -5 -1 -10 4 -10 6 0 11 5 11 10 0 6 -2 10 -4 10 -3 0
-8 -4 -11 -10z"/>
<path d="M11373 8025 c0 -8 4 -12 9 -9 5 3 6 10 3 15 -9 13 -12 11 -12 -6z"/>
<path d="M11151 8027 c2 -2 11 -8 20 -15 12 -9 16 -9 16 1 0 7 -9 14 -20 14
-11 1 -18 1 -16 0z"/>
<path d="M11232 8006 c-16 -20 -16 -20 2 -6 10 8 25 15 33 16 24 4 27 13 4 11
-12 -1 -30 -10 -39 -21z"/>
<path d="M11309 8017 c6 -8 9 -16 6 -19 -3 -2 2 -5 10 -5 13 0 13 3 -2 19 -19
21 -31 25 -14 5z"/>
<path d="M11149 7998 c7 -9 9 -23 5 -30 -6 -10 -4 -11 7 0 11 10 10 15 -6 30
-17 15 -18 15 -6 0z"/>
<path d="M11254 7989 c-3 -6 -2 -15 3 -20 5 -5 9 -1 9 11 0 23 -2 24 -12 9z"/>
<path d="M11070 7980 c0 -5 8 -7 18 -5 9 1 26 -5 37 -14 17 -14 18 -14 7 0 -6
9 -10 18 -8 20 3 2 -9 5 -25 5 -16 1 -29 -2 -29 -6z"/>
<path d="M11220 7966 c0 -2 8 -10 18 -17 15 -13 16 -12 3 4 -13 16 -21 21 -21
13z"/>
<path d="M11037 7954 c-3 -5 2 -15 12 -21 14 -9 18 -8 18 3 0 7 -4 11 -8 8 -4
-2 -9 1 -11 8 -3 7 -7 8 -11 2z"/>
<path d="M11164 7938 c-12 -14 -13 -18 -3 -10 9 6 18 10 21 7 2 -3 5 2 5 10 0
19 0 19 -23 -7z"/>
<path d="M11119 7913 c-13 -16 -12 -17 4 -4 9 7 17 15 17 17 0 8 -8 3 -21 -13z"/>
<path d="M11230 7916 c7 -7 13 -7 20 0 6 6 3 10 -10 10 -13 0 -16 -4 -10 -10z"/>
<path d="M11175 7910 c-4 -6 -11 -8 -16 -5 -5 4 -9 1 -9 -4 0 -16 16 -13 30 4
7 8 10 15 7 15 -3 0 -9 -5 -12 -10z"/>
<path d="M10993 7886 l-18 -21 24 20 c13 11 25 19 28 17 3 -2 7 -2 9 1 2 2 -3
4 -11 4 -8 0 -23 -10 -32 -21z"/>
<path d="M11090 7901 c0 -6 4 -13 10 -16 6 -3 7 1 4 9 -7 18 -14 21 -14 7z"/>
<path d="M11060 7886 c0 -2 8 -10 18 -17 15 -13 16 -12 3 4 -13 16 -21 21 -21
13z"/>
<path d="M10935 7861 c-3 -5 -2 -12 3 -15 5 -3 9 1 9 9 0 17 -3 19 -12 6z"/>
<path d="M11039 7868 c-8 -20 -3 -55 7 -55 9 0 10 5 5 11 -5 6 -7 19 -6 29 3
14 -2 25 -6 15z"/>
<path d="M10990 7856 c0 -2 8 -10 18 -17 15 -13 16 -12 3 4 -13 16 -21 21 -21
13z"/>
<path d="M11080 7834 c-11 -12 -10 -18 5 -32 18 -16 18 -16 6 1 -11 14 -11 20
-1 32 7 8 10 15 7 15 -2 0 -10 -7 -17 -16z"/>
<path d="M10974 7826 c1 -8 5 -18 8 -22 4 -3 5 1 4 10 -1 8 -5 18 -8 22 -4 3
-5 -1 -4 -10z"/>
<path d="M11113 7813 c0 -9 4 -10 14 -2 7 6 13 12 13 14 0 1 -6 2 -13 2 -8 0
-14 -6 -14 -14z"/>
<path d="M10911 7793 c7 -12 15 -20 18 -17 3 2 -3 12 -13 22 -17 16 -18 16 -5
-5z"/>
<path d="M11053 7787 c0 -7 9 -14 20 -14 11 -1 18 -1 16 0 -2 2 -11 8 -20 15
-12 9 -16 9 -16 -1z"/>
<path d="M10951 7767 c-13 -21 -12 -21 5 -5 10 10 16 20 13 22 -3 3 -11 -5
-18 -17z"/>
<path d="M10889 7743 c-13 -16 -12 -17 4 -4 9 7 17 15 17 17 0 8 -8 3 -21 -13z"/>
<path d="M11053 7745 c0 -8 4 -12 9 -9 5 3 6 10 3 15 -9 13 -12 11 -12 -6z"/>
<path d="M10839 7748 c-7 -25 -3 -40 14 -55 22 -18 22 -18 6 2 -9 11 -15 28
-14 38 3 13 -2 26 -6 15z"/>
<path d="M10955 7705 c0 -18 3 -36 6 -39 3 -3 5 10 4 29 0 18 -3 36 -6 39 -3
3 -5 -10 -4 -29z"/>
<path d="M10867 7719 c7 -7 15 -10 18 -7 3 3 -2 9 -12 12 -14 6 -15 5 -6 -5z"/>
<path d="M10906 7722 c-2 -4 4 -8 14 -8 10 0 16 4 14 8 -3 4 -9 8 -14 8 -5 0
-11 -4 -14 -8z"/>
<path d="M10910 7696 c0 -2 8 -10 18 -17 15 -13 16 -12 3 4 -13 16 -21 21 -21
13z"/>
<path d="M10787 7679 c7 -9 11 -18 8 -21 -3 -3 13 -4 35 -3 28 1 44 -3 50 -14
5 -9 10 -11 10 -4 0 16 -20 28 -51 28 -14 0 -34 7 -45 15 -17 14 -18 13 -7 -1z"/>
<path d="M10754 7669 c-3 -6 2 -18 12 -27 17 -16 17 -16 5 0 -7 9 -10 22 -6
28 3 5 4 10 1 10 -3 0 -8 -5 -12 -11z"/>
<path d="M10890 7676 c0 -2 8 -10 18 -17 15 -13 16 -12 3 4 -13 16 -21 21 -21
13z"/>
<path d="M10719 7638 c-5 -13 -5 -60 0 -63 4 -2 7 12 7 31 0 29 -3 42 -7 32z"/>
<path d="M10810 7636 c0 -2 8 -10 18 -17 15 -13 16 -12 3 4 -13 16 -21 21 -21
13z"/>
<path d="M10749 7603 c-13 -16 -12 -17 4 -4 16 13 21 21 13 21 -2 0 -10 -8
-17 -17z"/>
<path d="M10790 7616 c0 -2 8 -10 18 -17 15 -13 16 -12 3 4 -13 16 -21 21 -21
13z"/>
<path d="M10680 7600 c-9 -6 -10 -10 -3 -10 6 0 15 5 18 10 8 12 4 12 -15 0z"/>
<path d="M10850 7606 c0 -2 7 -7 16 -10 8 -3 12 -2 9 4 -6 10 -25 14 -25 6z"/>
<path d="M10770 7586 c0 -2 7 -7 16 -10 8 -3 12 -2 9 4 -6 10 -25 14 -25 6z"/>
<path d="M10630 7566 c0 -2 7 -7 16 -10 8 -3 12 -2 9 4 -6 10 -25 14 -25 6z"/>
<path d="M10684 7542 c23 -26 23 -26 23 -7 0 8 -3 13 -5 10 -3 -3 -12 1 -21 7
-10 8 -9 4 3 -10z"/>
<path d="M10752 7526 c-17 -20 -16 -21 3 -5 11 9 28 15 37 14 10 -2 20 0 22 4
11 17 -46 5 -62 -13z"/>
<path d="M10625 7519 c-3 -4 2 -6 10 -5 21 3 28 13 10 13 -9 0 -18 -4 -20 -8z"/>
<path d="M10674 7512 c4 -7 2 -21 -5 -30 -12 -15 -11 -15 6 0 16 15 17 20 6
30 -11 11 -13 10 -7 0z"/>
<path d="M10609 7463 c-13 -16 -12 -17 4 -4 9 7 17 15 17 17 0 8 -8 3 -21 -13z"/>
<path d="M10691 7467 c-8 -10 -7 -14 2 -14 8 0 14 6 14 14 0 7 -1 13 -2 13 -2
0 -8 -6 -14 -13z"/>
<path d="M10525 7459 c-4 -6 -5 -12 -2 -15 2 -3 7 2 10 11 7 17 1 20 -8 4z"/>
<path d="M10551 7467 c2 -1 13 -9 24 -17 19 -14 19 -14 6 3 -7 9 -18 17 -24
17 -6 0 -8 -1 -6 -3z"/>
<path d="M10629 7443 c-13 -16 -12 -17 4 -4 9 7 17 15 17 17 0 8 -8 3 -21 -13z"/>
<path d="M10517 7388 c19 -21 31 -25 14 -5 -6 8 -9 16 -6 19 3 2 -2 5 -10 5
-13 0 -13 -3 2 -19z"/>
<path d="M10544 7402 c4 -3 14 -7 22 -8 9 -1 13 0 10 4 -4 3 -14 7 -22 8 -9 1
-13 0 -10 -4z"/>
<path d="M10459 7373 c-12 -16 -12 -17 2 -6 9 7 20 9 24 5 5 -4 5 -1 1 6 -9
16 -11 15 -27 -5z"/>
<path d="M10606 7382 c-3 -5 1 -9 9 -9 8 0 12 4 9 9 -3 4 -7 8 -9 8 -2 0 -6
-4 -9 -8z"/>
<path d="M10533 7347 c0 -8 6 -14 14 -14 9 0 10 4 2 14 -6 7 -12 13 -14 13 -1
0 -2 -6 -2 -13z"/>
<path d="M10575 7349 c-4 -6 -5 -12 -2 -15 2 -3 7 2 10 11 7 17 1 20 -8 4z"/>
<path d="M10474 7301 c1 -27 4 -47 7 -45 7 4 5 82 -3 89 -2 3 -4 -17 -4 -44z"/>
<path d="M10500 7326 c0 -2 8 -10 18 -17 15 -13 16 -12 3 4 -13 16 -21 21 -21
13z"/>
<path d="M10430 7296 c0 -2 8 -10 18 -17 15 -13 16 -12 3 4 -13 16 -21 21 -21
13z"/>
<path d="M10414 7266 c1 -8 5 -18 8 -22 4 -3 5 1 4 10 -1 8 -5 18 -8 22 -4 3
-5 -1 -4 -10z"/>
<path d="M10391 7233 c7 -12 15 -20 18 -17 3 2 -3 12 -13 22 -17 16 -18 16 -5
-5z"/>
<path d="M10329 7223 c-13 -16 -12 -17 4 -4 9 7 17 15 17 17 0 8 -8 3 -21 -13z"/>
<path d="M10351 7207 c-13 -21 -12 -21 5 -5 10 10 16 20 13 22 -3 3 -11 -5
-18 -17z"/>
<path d="M10273 7189 c-1 -10 6 -24 15 -31 15 -12 16 -11 3 5 -10 12 -11 20
-2 30 8 10 7 14 -2 14 -7 0 -14 -8 -14 -18z"/>
<path d="M10366 7178 c3 -5 10 -6 15 -3 13 9 11 12 -6 12 -8 0 -12 -4 -9 -9z"/>
<path d="M10314 7166 c1 -8 5 -18 8 -22 4 -3 5 1 4 10 -1 8 -5 18 -8 22 -4 3
-5 -1 -4 -10z"/>
<path d="M10340 7166 c0 -2 8 -10 18 -17 15 -13 16 -12 3 4 -13 16 -21 21 -21
13z"/>
<path d="M10253 7145 c0 -8 3 -13 5 -10 3 3 12 -1 21 -7 10 -8 9 -4 -3 10 -23
26 -23 26 -23 7z"/>
<path d="M10179 7093 c-13 -16 -12 -17 4 -4 9 7 17 15 17 17 0 8 -8 3 -21 -13z"/>
<path d="M10239 7098 c-5 -18 -6 -38 -1 -34 7 8 12 36 6 36 -2 0 -4 -1 -5 -2z"/>
<path d="M10200 7075 c-7 -9 -11 -17 -9 -20 3 -2 10 5 17 15 14 24 10 26 -8 5z"/>
<path d="M10265 7080 c-3 -6 1 -7 9 -4 18 7 21 14 7 14 -6 0 -13 -4 -16 -10z"/>
<path d="M10120 7066 c0 -2 8 -10 18 -17 15 -13 16 -12 3 4 -13 16 -21 21 -21
13z"/>
<path d="M10173 7025 c0 -8 4 -15 9 -15 4 0 8 4 8 9 0 6 -4 12 -8 15 -5 3 -9
-1 -9 -9z"/>
<path d="M10080 7000 c-9 -6 -10 -10 -3 -10 6 0 15 5 18 10 8 12 4 12 -15 0z"/>
<path d="M10113 6987 c-1 -11 -1 -18 0 -16 2 2 8 11 15 20 9 12 9 16 -1 16 -7
0 -14 -9 -14 -20z"/>
<path d="M10053 6945 c0 -8 4 -15 9 -15 4 0 8 4 8 9 0 6 -4 12 -8 15 -5 3 -9
-1 -9 -9z"/>
<path d="M10079 6913 c-13 -16 -12 -17 4 -4 9 7 17 15 17 17 0 8 -8 3 -21 -13z"/>
<path d="M9966 6905 c-18 -14 -18 -14 1 -12 11 0 20 7 20 14 0 7 -1 13 -1 13
-1 0 -9 -7 -20 -15z"/>
<path d="M9915 6870 c-3 -5 -1 -10 4 -10 6 0 11 5 11 10 0 6 -2 10 -4 10 -3 0
-8 -4 -11 -10z"/>
<path d="M9895 6840 c-3 -5 -1 -10 4 -10 6 0 11 5 11 10 0 6 -2 10 -4 10 -3 0
-8 -4 -11 -10z"/>
<path d="M9922 6817 c-17 -18 -19 -24 -7 -24 8 0 13 3 10 5 -3 3 2 14 12 24
24 27 10 22 -15 -5z"/>
<path d="M9860 6766 c0 -2 8 -10 18 -17 15 -13 16 -12 3 4 -13 16 -21 21 -21
13z"/>
<path d="M9836 6742 c-3 -5 1 -9 9 -9 8 0 12 4 9 9 -3 4 -7 8 -9 8 -2 0 -6 -4
-9 -8z"/>
<path d="M9790 6736 c0 -2 8 -10 18 -17 15 -13 16 -12 3 4 -13 16 -21 21 -21
13z"/>
<path d="M9744 6698 c-4 -7 -2 -8 5 -4 6 4 18 3 25 -3 9 -8 13 -7 13 2 0 16
-34 20 -43 5z"/>
<path d="M9673 6625 c0 -8 4 -15 9 -15 4 0 8 4 8 9 0 6 -4 12 -8 15 -5 3 -9
-1 -9 -9z"/>
<path d="M9653 6575 c0 -8 4 -12 9 -9 4 3 8 9 8 15 0 5 -4 9 -8 9 -5 0 -9 -7
-9 -15z"/>
<path d="M9590 6541 c0 -6 4 -12 8 -15 5 -3 9 1 9 9 0 8 -4 15 -9 15 -4 0 -8
-4 -8 -9z"/>
<path d="M9573 6505 c0 -8 4 -12 9 -9 5 3 6 10 3 15 -9 13 -12 11 -12 -6z"/>
<path d="M9515 6480 c-3 -5 -1 -10 4 -10 6 0 11 5 11 10 0 6 -2 10 -4 10 -3 0
-8 -4 -11 -10z"/>
<path d="M9553 6475 c0 -8 4 -12 9 -9 5 3 6 10 3 15 -9 13 -12 11 -12 -6z"/>
<path d="M9376 6335 c-9 -26 -7 -32 5 -12 6 10 9 21 6 23 -2 3 -7 -2 -11 -11z"/>
<path d="M9225 6200 c-3 -6 1 -7 9 -4 18 7 21 14 7 14 -6 0 -13 -4 -16 -10z"/>
</g>
</svg>
